<?xml version="1.0" encoding="UTF-8"?>
<svg xmlns="http://www.w3.org/2000/svg" viewBox="0 -2 382.1 104" role="img" aria-labelledby="t"><title id="t">POuxis</title><path d="M6.5 93.5V6.5H31A24.5 24.5 0 0 1 31 55.5M121.5 5A45 45 0 0 1 121.5 95A45 45 0 0 1 121.5 5M190.5 36.5V73.5A21.5 21.5 0 0 0 233.5 73.5M233.5 36.5V93.5M255.5 36.5L292.5 93.5M292.5 36.5L255.5 93.5M315.5 36.5V93.5M372.717 42.506A16.9 13 0 1 0 347.683 58.636L367.864 69.545A18.2 14 0 1 1 340.905 86.917" fill="none" stroke="#F3F1EC" stroke-width="13" stroke-linecap="round" stroke-linejoin="miter"/><circle cx="31" cy="31" r="8" fill="#FF9C80"/><circle cx="315.5" cy="13" r="8" fill="#F3F1EC"/></svg>
